<svg width="136" height="16" viewBox="0 0 136 16" fill="none" xmlns="http://www.w3.org/2000/svg">
<path d="M6.7116 0.767045H10.6036V10.7386C10.5989 11.6856 10.3598 12.5189 9.88632 13.2386C9.41757 13.9536 8.7689 14.5123 7.9403 14.9148C7.11643 15.3125 6.1671 15.5114 5.09229 15.5114C4.15952 15.5114 3.30725 15.3504 2.53547 15.0284C1.76369 14.7017 1.14816 14.1903 0.688876 13.4943C0.229596 12.7936 0.00232305 11.8845 0.00705789 10.767H3.95592C3.97013 11.1316 4.03168 11.4394 4.14058 11.6903C4.25422 11.9413 4.41047 12.1307 4.60933 12.2585C4.81293 12.3816 5.05914 12.4432 5.34797 12.4432C5.64153 12.4432 5.88774 12.3793 6.0866 12.2514C6.2902 12.1236 6.44408 11.9342 6.54825 11.6832C6.65242 11.4276 6.70687 11.1127 6.7116 10.7386V0.767045ZM17.7876 15.5114C16.6039 15.5114 15.5906 15.277 14.7478 14.8082C13.905 14.3348 13.2587 13.6766 12.8089 12.8338C12.3591 11.9863 12.1342 11.0038 12.1342 9.88636C12.1342 8.76894 12.3591 7.78883 12.8089 6.94602C13.2587 6.09848 13.905 5.44034 14.7478 4.97159C15.5906 4.49811 16.6039 4.26136 17.7876 4.26136C18.9713 4.26136 19.9846 4.49811 20.8274 4.97159C21.6702 5.44034 22.3165 6.09848 22.7663 6.94602C23.2161 7.78883 23.441 8.76894 23.441 9.88636C23.441 11.0038 23.2161 11.9863 22.7663 12.8338C22.3165 13.6766 21.6702 14.3348 20.8274 14.8082C19.9846 15.277 18.9713 15.5114 17.7876 15.5114ZM17.816 12.6136C18.1474 12.6136 18.4339 12.5024 18.6754 12.2798C18.9169 12.0573 19.1039 11.7401 19.2365 11.3281C19.369 10.9162 19.4353 10.4261 19.4353 9.85795C19.4353 9.28504 19.369 8.79498 19.2365 8.38778C19.1039 7.97585 18.9169 7.65862 18.6754 7.43608C18.4339 7.21354 18.1474 7.10227 17.816 7.10227C17.4656 7.10227 17.165 7.21354 16.914 7.43608C16.6631 7.65862 16.4713 7.97585 16.3387 8.38778C16.2062 8.79498 16.1399 9.28504 16.1399 9.85795C16.1399 10.4261 16.2062 10.9162 16.3387 11.3281C16.4713 11.7401 16.6631 12.0573 16.914 12.2798C17.165 12.5024 17.4656 12.6136 17.816 12.6136ZM28.0717 15.483C27.3757 15.483 26.7601 15.3693 26.2251 15.142C25.6948 14.91 25.2781 14.5597 24.9751 14.0909C24.6721 13.6222 24.5206 13.0256 24.5206 12.3011C24.5206 11.7045 24.6224 11.1955 24.8259 10.7741C25.0295 10.348 25.3136 10 25.6782 9.73011C26.0428 9.46023 26.4666 9.25426 26.9495 9.11222C27.4372 8.97017 27.9628 8.87784 28.5262 8.83523C29.137 8.78788 29.6271 8.73106 29.9964 8.66477C30.3705 8.59375 30.6403 8.49669 30.8061 8.37358C30.9718 8.24574 31.0546 8.07765 31.0546 7.86932V7.84091C31.0546 7.55682 30.9457 7.33902 30.7279 7.1875C30.5101 7.03598 30.2308 6.96023 29.8899 6.96023C29.5158 6.96023 29.2104 7.04309 28.9737 7.20881C28.7417 7.36979 28.602 7.61837 28.5546 7.95455H24.9467C24.994 7.29167 25.2047 6.68087 25.5788 6.12216C25.9576 5.55871 26.5092 5.1089 27.2336 4.77273C27.9581 4.43182 28.8624 4.26136 29.9467 4.26136C30.7279 4.26136 31.4287 4.35369 32.049 4.53835C32.6692 4.71828 33.1972 4.97159 33.6328 5.2983C34.0684 5.62027 34.3998 5.99905 34.6271 6.43466C34.8591 6.86553 34.9751 7.33428 34.9751 7.84091V15.3125H31.3103V13.7784H31.2251C31.0073 14.1856 30.7421 14.5147 30.4296 14.7656C30.1219 15.0166 29.7691 15.1989 29.3714 15.3125C28.9784 15.4261 28.5452 15.483 28.0717 15.483ZM29.3501 13.0114C29.6484 13.0114 29.9277 12.9498 30.1882 12.8267C30.4533 12.7036 30.6688 12.526 30.8345 12.294C31.0002 12.062 31.0831 11.7803 31.0831 11.4489V10.5398C30.9789 10.5824 30.8676 10.6226 30.7492 10.6605C30.6356 10.6984 30.5125 10.7339 30.3799 10.767C30.2521 10.8002 30.1148 10.831 29.968 10.8594C29.826 10.8878 29.6768 10.9138 29.5206 10.9375C29.2175 10.9848 28.9689 11.063 28.7748 11.1719C28.5854 11.276 28.4434 11.4062 28.3487 11.5625C28.2587 11.714 28.2137 11.8845 28.2137 12.0739C28.2137 12.3769 28.3203 12.6089 28.5333 12.7699C28.7464 12.9309 29.0187 13.0114 29.3501 13.0114ZM28.1285 3.03977H26.1967C26.1967 2.01705 26.4311 1.2571 26.8998 0.759943C27.3686 0.258048 27.9391 0.0047342 28.6115 0C28.9808 0 29.2933 0.0591854 29.549 0.177556C29.8094 0.291193 30.0367 0.426136 30.2308 0.582386C30.4249 0.738636 30.6001 0.875947 30.7563 0.994318C30.9173 1.10795 31.0831 1.16477 31.2535 1.16477C31.5281 1.16004 31.7223 1.06061 31.8359 0.866476C31.9543 0.672348 32.0158 0.402462 32.0206 0.0568175H33.924C33.9098 1.06061 33.6683 1.82055 33.1995 2.33665C32.7355 2.85275 32.1721 3.11553 31.5092 3.125C31.1399 3.12973 30.825 3.07292 30.5646 2.95455C30.3089 2.83617 30.0864 2.70123 29.897 2.54972C29.7123 2.39347 29.5395 2.25615 29.3785 2.13778C29.2175 2.01941 29.0471 1.96023 28.8671 1.96023C28.6399 1.96023 28.4599 2.05256 28.3274 2.23722C28.1948 2.41714 28.1285 2.68466 28.1285 3.03977ZM42.104 15.5114C40.9203 15.5114 39.907 15.277 39.0642 14.8082C38.2214 14.3348 37.5751 13.6766 37.1253 12.8338C36.6755 11.9863 36.4506 11.0038 36.4506 9.88636C36.4506 8.76894 36.6755 7.78883 37.1253 6.94602C37.5751 6.09848 38.2214 5.44034 39.0642 4.97159C39.907 4.49811 40.9203 4.26136 42.104 4.26136C43.2877 4.26136 44.301 4.49811 45.1438 4.97159C45.9866 5.44034 46.6329 6.09848 47.0827 6.94602C47.5325 7.78883 47.7574 8.76894 47.7574 9.88636C47.7574 11.0038 47.5325 11.9863 47.0827 12.8338C46.6329 13.6766 45.9866 14.3348 45.1438 14.8082C44.301 15.277 43.2877 15.5114 42.104 15.5114ZM42.1324 12.6136C42.4639 12.6136 42.7503 12.5024 42.9918 12.2798C43.2333 12.0573 43.4203 11.7401 43.5529 11.3281C43.6854 10.9162 43.7517 10.4261 43.7517 9.85795C43.7517 9.28504 43.6854 8.79498 43.5529 8.38778C43.4203 7.97585 43.2333 7.65862 42.9918 7.43608C42.7503 7.21354 42.4639 7.10227 42.1324 7.10227C41.782 7.10227 41.4814 7.21354 41.2304 7.43608C40.9795 7.65862 40.7877 7.97585 40.6551 8.38778C40.5226 8.79498 40.4563 9.28504 40.4563 9.85795C40.4563 10.4261 40.5226 10.9162 40.6551 11.3281C40.7877 11.7401 40.9795 12.0573 41.2304 12.2798C41.4814 12.5024 41.782 12.6136 42.1324 12.6136ZM53.2759 15.3125V0.767045H63.5032V3.94886H57.2247V6.44886H62.8782V9.63068H57.2247V15.3125H53.2759ZM69.4673 15.5114C68.2836 15.5114 67.2703 15.277 66.4275 14.8082C65.5847 14.3348 64.9384 13.6766 64.4886 12.8338C64.0388 11.9863 63.8139 11.0038 63.8139 9.88636C63.8139 8.76894 64.0388 7.78883 64.4886 6.94602C64.9384 6.09848 65.5847 5.44034 66.4275 4.97159C67.2703 4.49811 68.2836 4.26136 69.4673 4.26136C70.651 4.26136 71.6643 4.49811 72.5071 4.97159C73.3499 5.44034 73.9962 6.09848 74.446 6.94602C74.8958 7.78883 75.1207 8.76894 75.1207 9.88636C75.1207 11.0038 74.8958 11.9863 74.446 12.8338C73.9962 13.6766 73.3499 14.3348 72.5071 14.8082C71.6643 15.277 70.651 15.5114 69.4673 15.5114ZM69.4957 12.6136C69.8271 12.6136 70.1136 12.5024 70.3551 12.2798C70.5965 12.0573 70.7836 11.7401 70.9161 11.3281C71.0487 10.9162 71.115 10.4261 71.115 9.85795C71.115 9.28504 71.0487 8.79498 70.9161 8.38778C70.7836 7.97585 70.5965 7.65862 70.3551 7.43608C70.1136 7.21354 69.8271 7.10227 69.4957 7.10227C69.1453 7.10227 68.8447 7.21354 68.5937 7.43608C68.3428 7.65862 68.151 7.97585 68.0184 8.38778C67.8858 8.79498 67.8196 9.28504 67.8196 9.85795C67.8196 10.4261 67.8858 10.9162 68.0184 11.3281C68.151 11.7401 68.3428 12.0573 68.5937 12.2798C68.8447 12.5024 69.1453 12.6136 69.4957 12.6136ZM80.6321 9.17614V15.3125H76.7116V4.40341H80.4332V6.47727H80.5468C80.7836 5.78598 81.2002 5.24384 81.7968 4.85085C82.3982 4.45786 83.0989 4.26136 83.8991 4.26136C84.6709 4.26136 85.3409 4.43892 85.909 4.79403C86.482 5.14441 86.9247 5.62737 87.2372 6.2429C87.5544 6.85843 87.7107 7.56155 87.7059 8.35227V15.3125H83.7855V9.17614C83.7902 8.63636 83.6529 8.21259 83.3735 7.90483C83.0989 7.59706 82.7154 7.44318 82.223 7.44318C81.901 7.44318 81.6193 7.5142 81.3778 7.65625C81.1411 7.79356 80.9588 7.99242 80.8309 8.25284C80.7031 8.50852 80.6368 8.81629 80.6321 9.17614ZM99.6129 7.95455H96.0049C95.986 7.73201 95.9079 7.54025 95.7706 7.37926C95.6332 7.21828 95.4557 7.09517 95.2379 7.00994C95.0248 6.91998 94.7881 6.875 94.5277 6.875C94.1915 6.875 93.9027 6.93655 93.6612 7.05966C93.4197 7.18277 93.3013 7.35795 93.3061 7.58523C93.3013 7.74621 93.37 7.89536 93.512 8.03267C93.6588 8.16998 93.9405 8.27652 94.3572 8.35227L96.5731 8.75C97.6905 8.9536 98.5215 9.29687 99.066 9.77983C99.6152 10.258 99.8922 10.8996 99.897 11.7045C99.8922 12.4811 99.6602 13.1558 99.201 13.7287C98.7464 14.2969 98.1238 14.7372 97.3331 15.0497C96.5471 15.3575 95.6498 15.5114 94.6413 15.5114C92.9746 15.5114 91.6702 15.1705 90.7279 14.4886C89.7904 13.8068 89.2672 12.9072 89.1583 11.7898H93.0504C93.1025 12.1354 93.2729 12.4029 93.5617 12.5923C93.8553 12.777 94.2246 12.8693 94.6697 12.8693C95.0295 12.8693 95.3255 12.8078 95.5575 12.6847C95.7942 12.5616 95.915 12.3864 95.9197 12.1591C95.915 11.9508 95.8108 11.785 95.6072 11.6619C95.4083 11.5388 95.0958 11.4394 94.6697 11.3636L92.7379 11.0227C91.6252 10.8286 90.7919 10.4593 90.2379 9.91477C89.6839 9.37027 89.4093 8.66951 89.414 7.8125C89.4093 7.05492 89.6081 6.41335 90.0106 5.88778C90.4178 5.35748 90.9978 4.95502 91.7507 4.6804C92.5082 4.40104 93.4055 4.26136 94.4424 4.26136C96.0191 4.26136 97.262 4.58807 98.1711 5.24148C99.0849 5.89489 99.5655 6.79924 99.6129 7.95455ZM106.626 15.5114C105.462 15.5114 104.458 15.2888 103.615 14.8438C102.777 14.3939 102.131 13.75 101.676 12.9119C101.226 12.0691 101.001 11.0606 101.001 9.88636C101.001 8.75947 101.229 7.77462 101.683 6.93182C102.138 6.08901 102.779 5.43324 103.608 4.96449C104.437 4.49574 105.414 4.26136 106.541 4.26136C107.365 4.26136 108.111 4.3892 108.778 4.64489C109.446 4.90057 110.017 5.27225 110.49 5.75994C110.963 6.2429 111.328 6.83002 111.584 7.52131C111.839 8.21259 111.967 8.99148 111.967 9.85795V10.767H102.223V8.60795H108.359C108.355 8.29545 108.274 8.02083 108.118 7.78409C107.966 7.54261 107.76 7.35559 107.5 7.22301C107.244 7.0857 106.953 7.01705 106.626 7.01705C106.309 7.01705 106.018 7.0857 105.753 7.22301C105.488 7.35559 105.275 7.54025 105.114 7.77699C104.957 8.01373 104.874 8.29072 104.865 8.60795V10.9375C104.865 11.2879 104.938 11.6004 105.085 11.875C105.232 12.1496 105.443 12.3651 105.717 12.5213C105.992 12.6776 106.323 12.7557 106.712 12.7557C106.981 12.7557 107.228 12.7178 107.45 12.642C107.678 12.5663 107.872 12.4574 108.033 12.3153C108.194 12.1686 108.312 11.9934 108.388 11.7898H111.967C111.844 12.5473 111.553 13.2055 111.094 13.7642C110.634 14.3182 110.026 14.7491 109.268 15.0568C108.516 15.3598 107.635 15.5114 106.626 15.5114ZM118.823 15.5114C117.639 15.5114 116.626 15.277 115.783 14.8082C114.94 14.3348 114.294 13.6766 113.844 12.8338C113.394 11.9863 113.169 11.0038 113.169 9.88636C113.169 8.76894 113.394 7.78883 113.844 6.94602C114.294 6.09848 114.94 5.44034 115.783 4.97159C116.626 4.49811 117.639 4.26136 118.823 4.26136C119.893 4.26136 120.818 4.45549 121.6 4.84375C122.386 5.22727 122.994 5.77178 123.425 6.47727C123.856 7.17803 124.074 8.00189 124.078 8.94886H120.442C120.39 8.37595 120.224 7.94034 119.945 7.64205C119.67 7.33902 119.315 7.1875 118.88 7.1875C118.539 7.1875 118.24 7.28693 117.985 7.4858C117.729 7.67992 117.53 7.97585 117.388 8.37358C117.246 8.76657 117.175 9.26136 117.175 9.85795C117.175 10.4545 117.246 10.9517 117.388 11.3494C117.53 11.7424 117.729 12.0384 117.985 12.2372C118.24 12.4313 118.539 12.5284 118.88 12.5284C119.168 12.5284 119.424 12.4621 119.647 12.3295C119.869 12.1922 120.049 11.9934 120.186 11.733C120.328 11.4678 120.414 11.1458 120.442 10.767H124.078C124.064 11.7282 123.844 12.5663 123.418 13.2812C122.992 13.9915 122.388 14.5407 121.607 14.929C120.83 15.3172 119.902 15.5114 118.823 15.5114ZM128.736 15.483C128.04 15.483 127.424 15.3693 126.889 15.142C126.359 14.91 125.942 14.5597 125.639 14.0909C125.336 13.6222 125.185 13.0256 125.185 12.3011C125.185 11.7045 125.286 11.1955 125.49 10.7741C125.694 10.348 125.978 10 126.342 9.73011C126.707 9.46023 127.131 9.25426 127.614 9.11222C128.101 8.97017 128.627 8.87784 129.19 8.83523C129.801 8.78788 130.291 8.73106 130.66 8.66477C131.035 8.59375 131.304 8.49669 131.47 8.37358C131.636 8.24574 131.719 8.07765 131.719 7.86932V7.84091C131.719 7.55682 131.61 7.33902 131.392 7.1875C131.174 7.03598 130.895 6.96023 130.554 6.96023C130.18 6.96023 129.874 7.04309 129.638 7.20881C129.406 7.36979 129.266 7.61837 129.219 7.95455H125.611C125.658 7.29167 125.869 6.68087 126.243 6.12216C126.622 5.55871 127.173 5.1089 127.898 4.77273C128.622 4.43182 129.526 4.26136 130.611 4.26136C131.392 4.26136 132.093 4.35369 132.713 4.53835C133.333 4.71828 133.861 4.97159 134.297 5.2983C134.732 5.62027 135.064 5.99905 135.291 6.43466C135.523 6.86553 135.639 7.33428 135.639 7.84091V15.3125H131.974V13.7784H131.889C131.671 14.1856 131.406 14.5147 131.094 14.7656C130.786 15.0166 130.433 15.1989 130.035 15.3125C129.642 15.4261 129.209 15.483 128.736 15.483ZM130.014 13.0114C130.312 13.0114 130.592 12.9498 130.852 12.8267C131.117 12.7036 131.333 12.526 131.499 12.294C131.664 12.062 131.747 11.7803 131.747 11.4489V10.5398C131.643 10.5824 131.532 10.6226 131.413 10.6605C131.3 10.6984 131.177 10.7339 131.044 10.767C130.916 10.8002 130.779 10.831 130.632 10.8594C130.49 10.8878 130.341 10.9138 130.185 10.9375C129.882 10.9848 129.633 11.063 129.439 11.1719C129.249 11.276 129.107 11.4062 129.013 11.5625C128.923 11.714 128.878 11.8845 128.878 12.0739C128.878 12.3769 128.984 12.6089 129.197 12.7699C129.41 12.9309 129.683 13.0114 130.014 13.0114Z" fill="white"/>
</svg>
