<svg width="24" height="24" viewBox="0 0 24 24" fill="none" xmlns="http://www.w3.org/2000/svg">
<g clip-path="url(#clip0_12_48)">
<path d="M15.5 13.5H14.71L14.43 13.23C15.41 12.09 16 10.61 16 9C16 5.41 13.09 2.5 9.5 2.5C5.91 2.5 3 5.41 3 9C3 12.59 5.91 15.5 9.5 15.5C11.11 15.5 12.59 14.91 13.73 13.93L14 14.21V15L19 19.99L20.49 18.5L15.5 13.5V13.5ZM9.5 13.5C7.01 13.5 5 11.49 5 9C5 6.51 7.01 4.5 9.5 4.5C11.99 4.5 14 6.51 14 9C14 11.49 11.99 13.5 9.5 13.5Z" fill="black"/>
</g>
<defs>
<clipPath id="clip0_12_48">
<rect width="24" height="24" fill="white"/>
</clipPath>
</defs>
</svg>
